<?xml version="1.0" encoding="UTF-8" standalone="no"?>
<svg
   xmlns:dc="http://purl.org/dc/elements/1.1/"
   xmlns:cc="http://creativecommons.org/ns#"
   xmlns:rdf="http://www.w3.org/1999/02/22-rdf-syntax-ns#"
   xmlns:svg="http://www.w3.org/2000/svg"
   xmlns="http://www.w3.org/2000/svg"
   xmlns:sodipodi="http://sodipodi.sourceforge.net/DTD/sodipodi-0.dtd"
   xmlns:inkscape="http://www.inkscape.org/namespaces/inkscape"
   version="1.1"
   id="svg1402"
   width="840"
   height="807"
   viewBox="0 0 840 807"
   sodipodi:docname="ticket.svg"
   inkscape:version="1.0.2-2 (e86c870879, 2021-01-15)">
  <metadata
     id="metadata1408">
    <rdf:RDF>
      <cc:Work
         rdf:about="">
        <dc:format>image/svg+xml</dc:format>
        <dc:type
           rdf:resource="http://purl.org/dc/dcmitype/StillImage" />
        <dc:title></dc:title>
      </cc:Work>
    </rdf:RDF>
  </metadata>
  <defs
     id="defs1406" />
  <sodipodi:namedview
     pagecolor="#ffffff"
     bordercolor="#666666"
     borderopacity="1"
     objecttolerance="10"
     gridtolerance="10"
     guidetolerance="10"
     inkscape:pageopacity="0"
     inkscape:pageshadow="2"
     inkscape:window-width="1296"
     inkscape:window-height="745"
     id="namedview1404"
     showgrid="false"
     inkscape:zoom="0.68868554"
     inkscape:cx="420"
     inkscape:cy="403.5"
     inkscape:window-x="-8"
     inkscape:window-y="-8"
     inkscape:window-maximized="1"
     inkscape:current-layer="g1410" />
  <g
     inkscape:groupmode="layer"
     inkscape:label="Image"
     id="g1410">
    <path
       style="fill:#005690;stroke-width:0.866951;fill-opacity:1"
       d="m 162.31756,705.21807 c -6.47748,-1.83474 -10.36581,-8.7964 -8.52577,-15.26451 1.7554,-6.17056 -1.08021,-17.42806 -6.65991,-26.44012 -8.64169,-13.95763 -30.87941,-24.64047 -44.74047,-21.49301 -6.20152,1.40819 -10.716547,0.204 -14.490755,-3.8648 l -2.755936,-2.97104 0.0033,-86.21445 c 0.0033,-84.98559 0.02896,-86.25425 1.801706,-89.00646 1.797579,-2.79076 6.33609,-5.22087 9.750601,-5.22087 0.995949,0 1.810815,-0.30054 1.810815,-0.66787 0,-0.36734 -5.239571,-12.02253 -11.64349,-25.90043 -6.40392,-13.87791 -11.860278,-26.25854 -12.125241,-27.51253 -1.226906,-5.80659 3.739735,-11.93162 11.181885,-13.78988 6.571164,-1.64076 12.227845,-5.01951 18.520115,-11.06209 12.6948,-12.19104 16.87788,-30.82787 10.61061,-47.2734 -2.95895,-7.76439 -3.05863,-14.16222 -0.28136,-18.05827 1.75576,-2.46305 7.26594,-5.10525 44.33207,-21.25786 23.2799,-10.14488 64.38175,-28.06557 91.33743,-39.82376 26.95568,-11.7582 72.26795,-31.51183 100.69394,-43.89696 74.02128,-32.25089 143.99144,-62.74856 208.456,-90.85906 50.84794,-22.172817 56.40935,-24.411622 59.62634,-24.0032 4.43185,0.562658 7.73181,2.812513 9.60211,6.546538 0.79443,1.586076 2.39841,4.776842 3.56439,7.090602 2.78717,5.53082 10.62433,12.85268 17.28018,16.14399 9.68987,4.79162 14.13048,5.7988 25.38469,5.7575 9.50281,-0.0349 10.76574,-0.23939 17.37639,-2.81391 5.38988,-2.0991 8.03271,-2.68294 10.83454,-2.39354 6.46397,0.66768 8.4087,2.76436 14.81979,15.97769 3.21355,6.62317 19.70023,40.46714 36.63707,75.20883 16.93684,34.74169 31.04455,64.42954 31.35046,65.97303 0.39412,1.98853 -6.3e-4,3.89509 -1.35461,6.54253 -1.59184,3.11252 -2.93702,4.24664 -8.05822,6.79389 -8.8813,4.4175 -14.24787,8.75325 -18.99969,15.3502 -6.77445,9.40497 -8.19941,14.04 -8.13767,26.4697 0.0569,11.44992 1.04972,15.28851 5.54442,21.43612 1.94836,2.66488 2.41398,4.24839 2.41398,8.20967 0,4.50919 -0.2534,5.13728 -3.11884,7.73033 -2.0035,1.81305 -11.42388,6.56882 -26.34225,13.29856 l -23.22341,10.47618 4.84201,0.61514 c 9.74312,1.23777 13.53526,5.51753 13.53526,15.27569 0,11.7348 5.13504,23.2456 14.19635,31.82274 8.66528,8.20227 18.19296,12.27295 31.49812,13.45749 8.82022,0.78526 12.48729,2.36352 15.57795,6.70457 l 2.02054,2.83799 -0.23532,84.55762 -0.23531,84.55761 -2.22774,2.25658 c -3.45198,3.49665 -6.55125,4.62667 -12.68944,4.62667 -6.75449,0 -14.13424,1.70506 -21.0199,4.85654 -7.20015,3.29543 -17.81543,13.44458 -21.38634,20.44727 -3.72468,7.30423 -5.8079,15.34945 -5.10722,19.72372 1.48863,9.29337 1.47512,10.224 -0.19116,13.17122 -1.02607,1.81485 -3.17534,3.68321 -5.57908,4.8499 l -3.91005,1.89779 -274.49179,-0.0725 C 287.42063,705.98135 163.7461,705.62271 162.31753,705.21807 Z M 698.1571,676.13411 c 3.06205,-16.64362 13.18937,-32.90355 27.02149,-43.38437 7.17663,-5.43786 19.80189,-11.40602 28.28877,-13.37257 l 6.68323,-1.54861 0.22795,-69.2954 0.22794,-69.2954 -2.45568,-0.51266 c -16.52109,-3.44894 -29.05607,-9.81876 -39.98846,-20.32068 -9.37259,-9.00353 -15.78685,-20.03414 -19.05041,-32.76098 l -1.51402,-5.90422 -257.43904,-0.23028 c -141.59147,-0.12666 -258.24646,-0.0471 -259.2333,0.17688 -1.39092,0.31562 -2.02113,1.53707 -2.80343,5.43347 -1.26057,6.2785 -5.95885,16.66854 -10.53686,23.30178 -4.92773,7.13998 -14.84979,16.19411 -23.04353,21.02781 -7.90329,4.66236 -21.19772,9.30791 -29.13113,10.17946 l -5.32563,0.58506 0.228,68.39133 0.22799,68.39134 6.37885,1.01729 c 29.736,4.7423 53.44918,25.38494 60.88479,53.00104 0.98801,3.66946 1.79637,7.55992 1.79637,8.64547 v 1.97373 H 438.37315 697.14531 Z M 199.65067,660.91659 c -1.47031,-0.70345 -3.47528,-2.30793 -4.45549,-3.5655 -1.75649,-2.25351 -1.78544,-3.78263 -2.00759,-106.03209 -0.22235,-102.34887 -0.20147,-103.78261 1.55128,-106.49455 0.97717,-1.51193 3.08356,-3.50318 4.68088,-4.42501 2.87834,-1.66113 4.9787,-1.67609 235.79136,-1.67921 259.37244,-0.003 236.7839,-0.5454 240.93956,5.77999 l 2.01901,3.07318 -0.0554,102.90214 c -0.0517,96.00484 -0.15912,103.08838 -1.60267,105.68069 -0.851,1.5282 -2.83103,3.51945 -4.40007,4.42501 -2.81046,1.62203 -6.31774,1.64623 -236.32018,1.63042 -206.85614,-0.0143 -233.77208,-0.16184 -236.14066,-1.29507 z M 652.5548,550.68641 652.32787,463.59915 435.56856,463.38658 218.80925,463.174 v 87.29984 87.29983 h 216.98624 216.98625 z m -285.66903,73.23425 c -8.61693,-2.65849 -14.59862,-8.64927 -20.30129,-20.33212 -12.99426,-26.62089 -11.63746,-82.25673 2.58087,-105.82926 6.70305,-11.11296 14.61149,-16.21317 25.1403,-16.21317 7.65989,0 13.52894,2.44385 19.17936,7.98621 6.89261,6.76078 13.05687,21.53177 14.60911,35.00682 l 0.60725,5.27163 h -8.38554 -8.38555 l -0.54243,-4.42817 c -0.29863,-2.43787 -1.85635,-6.87859 -3.46574,-9.88008 -3.61521,-6.74231 -7.24633,-9.30864 -13.17091,-9.30864 -5.94192,0 -9.56346,2.56605 -13.13754,9.30864 -3.87645,7.31304 -5.42198,13.4829 -6.61778,26.41866 -1.62491,17.57788 1.10453,39.76177 5.99314,48.70992 5.52003,10.10392 15.34363,12.55981 22.44166,5.61041 3.8789,-3.79769 7.24682,-11.17447 7.93113,-17.37164 l 0.57411,-5.19917 h 8.33848 c 9.71847,0 9.14408,-0.93089 7.02593,11.38671 -4.09965,23.84046 -15.93036,38.71432 -31.60228,39.73114 -2.80897,0.18226 -6.62741,-0.19381 -8.81228,-0.86789 z m -107.30248,-58.89543 -0.22914,-55.87923 -12.25258,-0.23467 -12.25258,-0.23467 v -11.78464 -11.78464 h 32.52504 32.52503 v 11.78396 11.78396 l -11.80703,0.23534 -11.80703,0.23536 -0.22914,55.87923 -0.22914,55.87924 h -8.00714 -8.00715 z m 49.22674,-12.01931 v -67.89854 h 8.01987 c 5.7677,0 8.04838,0.29608 8.12139,1.05433 0.28333,2.94284 0.33444,126.52024 0.0539,130.31459 l -0.32742,4.42817 h -7.93386 -7.93387 v -67.89855 z m 114.0604,0 v -67.89854 h 8.01987 8.01987 v 27.58115 c 0,19.77902 0.27271,27.32301 0.96406,26.66862 0.53023,-0.50188 7.44737,-12.81851 15.37142,-27.37028 l 14.40736,-26.45776 10.55431,-0.23832 c 5.80488,-0.13107 10.4163,0.0858 10.24762,0.48203 -0.16869,0.39618 -7.22354,12.87673 -15.67746,27.73452 l -15.37076,27.01418 15.23127,36.18504 c 8.37719,19.90177 15.98992,37.98793 16.91717,40.19147 l 1.68592,4.00644 -10.90294,-0.0123 -10.90293,-0.0123 -11.51048,-28.63285 c -6.33076,-15.74807 -11.79544,-29.06928 -12.14372,-29.60269 -0.37501,-0.57433 -2.313,1.85742 -4.75205,5.96273 l -4.11879,6.93252 v 22.68246 22.68246 h -8.01987 -8.01987 z m 79.30762,0 v -67.89854 h 29.40619 29.4062 v 11.79318 11.79317 l -21.16355,0.22613 -21.16355,0.22614 -0.24381,14.54968 -0.24382,14.54969 h 19.65032 19.65032 l -0.24792,11.59758 -0.24792,11.59758 -19.39939,0.22736 -19.39938,0.22736 0.2408,17.4853 0.2408,17.4853 22.05465,0.2256 22.05464,0.2256 v 11.79371 11.79371 h -30.29729 -30.29729 z m 90.89188,11.80845 v -56.09011 h -12.02981 -12.02981 v -11.80844 -11.80844 h 32.52504 32.52503 v 11.80844 11.80844 h -12.0298 -12.02981 v 56.09011 56.0901 h -8.46542 -8.46542 z m -461.058,-117.52898 c 13.69869,-8.43515 21.74725,-22.01437 21.74725,-36.69114 0,-6.78667 2.08345,-11.1493 6.54444,-13.70369 2.32606,-1.3319 5.13052,-1.68321 16.22653,-2.03268 l 13.41446,-0.42247 -11.91571,-24.46034 c -12.68332,-26.03608 -13.48221,-28.62409 -10.51343,-34.05816 0.78619,-1.43906 2.32334,-3.16324 3.41587,-3.83152 1.09252,-0.66827 52.51161,-23.20306 114.26462,-50.07732 61.75302,-26.87426 127.31547,-55.41327 145.69434,-63.42001 18.37887,-8.00674 50.65886,-22.05491 71.7333,-31.21815 21.07444,-9.16324 50.29345,-21.87637 64.93113,-28.25139 22.97907,-10.00788 27.06977,-11.53309 29.95122,-11.16726 4.73966,0.60173 7.83045,2.81181 10.24823,7.32799 8.28562,15.47681 88.96212,182.43232 89.32176,184.8464 0.61198,4.10807 -1.87072,8.83998 -5.90185,11.24861 -1.76129,1.05237 -24.55477,11.17166 -50.65216,22.48729 l -47.44982,20.57386 25.46527,0.22391 25.46526,0.22391 8.6181,-3.92341 c 4.73995,-2.15787 13.02903,-5.91199 18.42016,-8.34246 5.39114,-2.43048 15.61648,-7.05425 22.72297,-10.27505 7.1065,-3.2208 17.43209,-7.88219 22.94575,-10.35864 5.51366,-2.47645 10.02484,-4.79878 10.02484,-5.16074 0,-0.36195 -0.79918,-3.81348 -1.77595,-7.67007 -3.8004,-15.00511 -1.5716,-33.16962 5.78355,-47.13524 5.56444,-10.56549 15.19082,-21.32919 23.39362,-26.15746 1.10274,-0.64908 2.00497,-1.42623 2.00497,-1.72701 0,-0.55413 -60.38404,-124.80479 -60.88276,-125.27684 -0.1488,-0.14085 -3.65354,0.35168 -7.78829,1.09451 -25.26415,4.53887 -53.92251,-5.51174 -70.61796,-24.76605 -2.9597,-3.41332 -5.81218,-6.04026 -6.33885,-5.83763 -0.52666,0.20262 -21.80924,9.47304 -47.29461,20.60092 -25.48537,11.12788 -87.03788,37.968 -136.78336,59.64473 -128.55918,56.02 -128.52357,56.00448 -197.37796,86.02404 -34.30723,14.95747 -68.23164,29.74321 -75.38759,32.8572 l -13.01081,5.66178 1.29844,4.78524 c 0.80656,2.9725 1.30343,8.93897 1.31163,15.75021 0.0113,9.41825 -0.31711,12.01061 -2.32839,18.37758 -5.47903,17.34451 -15.95728,30.97444 -30.84471,40.12222 -2.69557,1.65633 -4.99508,3.05106 -5.11003,3.09941 -0.21575,0.0907 19.02667,42.2071 19.88326,43.51899 0.77974,1.1942 1.60982,0.90323 7.14327,-2.50407 z m 131.35216,-52.09173 c 0,-1.20433 -11.02293,-23.9534 -11.60647,-23.9534 -0.35505,0 -5.35728,1.91366 -11.11607,4.25258 -5.75879,2.33891 -10.54898,4.14181 -10.64485,4.00644 -1.46898,-2.07434 -9.39932,-20.54674 -9.11522,-21.23238 0.55353,-1.33585 57.81709,-25.15582 58.57864,-24.367 1.64798,1.70696 9.81818,20.73662 9.1602,21.33549 -0.41309,0.37597 -4.9615,2.44272 -10.10758,4.59277 -5.14609,2.15004 -9.6242,4.17399 -9.95135,4.49766 -0.50208,0.49673 11.6267,27.16457 13.7911,30.32284 0.53389,0.77905 5.08578,1.05194 17.54657,1.05194 9.25411,0 17.01796,-0.29451 17.25299,-0.65446 0.23503,-0.35996 -5.95048,-14.30868 -13.74558,-30.99717 -7.7951,-16.68848 -14.57683,-31.2077 -15.0705,-32.26494 -0.8425,-1.80423 -0.47709,-2.10363 5.95226,-4.87694 3.76742,-1.62509 7.29073,-2.79458 7.82957,-2.59886 0.53883,0.19572 8.38017,16.14751 17.42519,35.44843 l 16.44549,35.09258 7.42423,0.004 7.42423,0.004 -1.78979,-2.74124 c -11.58541,-17.74429 -20.911,-49.18719 -19.36813,-65.30316 1.22394,-12.78462 5.91332,-20.46221 15.1178,-24.75132 5.44976,-2.53948 6.35765,-2.7057 12.78652,-2.34079 5.12958,0.29115 8.07314,0.95901 11.37573,2.58103 8.0169,3.93739 16.64585,11.80753 23.3351,21.2831 6.60558,9.35705 6.68267,8.49631 -1.06003,11.83615 -3.72879,1.60842 -7.2677,2.9244 -7.86425,2.9244 -0.59655,0 -1.86068,-1.36399 -2.80919,-3.0311 -3.89554,-6.8469 -12.59095,-12.93177 -18.54313,-12.97612 -4.21791,-0.0315 -9.3349,3.03496 -11.37215,6.8148 -5.94074,11.02231 2.47506,40.72586 17.24165,60.85436 l 3.55796,4.84989 h 16.35618 16.35618 l -0.0139,-3.16297 c -0.008,-1.73964 -0.54808,-5.31114 -1.20095,-7.93668 l -1.18703,-4.77371 7.21586,-3.03516 c 3.96872,-1.66933 7.46899,-3.03207 7.77839,-3.0283 1.00245,0.0122 2.65363,7.73985 3.18948,14.92695 l 0.52262,7.00987 h 10.9609 10.96088 l -1.21643,-2.74124 c -0.66902,-1.50769 -12.07832,-25.8739 -25.35397,-54.14714 -13.27564,-28.27324 -23.83536,-51.64549 -23.46603,-51.93834 1.8745,-1.48635 13.93498,-5.89073 14.51593,-5.3011 0.36981,0.37534 5.77629,11.61102 12.01442,24.9682 6.23811,13.35717 11.52483,24.11273 11.74826,23.90124 0.22343,-0.21148 1.30419,-14.07614 2.40169,-30.81036 1.0975,-16.73422 2.16834,-30.5667 2.37964,-30.73884 0.21131,-0.17215 4.5513,-2.07015 9.64443,-4.21778 l 9.26022,-3.90478 -0.49116,6.52507 c -0.27017,3.58826 -1.39424,17.72148 -2.49797,31.40662 l -2.00679,24.88208 29.99263,28.20448 c 16.49595,15.51245 30.29467,28.41739 30.6638,28.67764 0.36914,0.26025 1.43149,1.32344 2.36077,2.36267 l 1.68962,1.88951 -8.6585,3.80385 c -4.76217,2.09212 -9.13428,3.80385 -9.71579,3.80385 -0.58151,0 -11.68079,-10.06467 -24.66506,-22.36594 l -23.60776,-22.36595 -0.59025,4.02069 c -1.50624,10.26007 -1.2181,11.5019 6.5281,28.1358 l 7.30222,15.68052 33.71012,0.55018 33.71013,0.5502 26.05656,-11.30563 c 54.1277,-23.48536 111.46756,-48.5817 111.87058,-48.96318 0.66306,-0.62761 -75.89151,-157.47896 -77.07733,-157.92241 -0.58595,-0.21912 -17.82867,6.89965 -38.31716,15.81949 -20.4885,8.91985 -57.10098,24.85138 -81.3611,35.40343 -122.38805,53.23318 -191.13129,83.14983 -241.48231,105.09163 -17.39595,7.58075 -31.73736,14.09092 -31.86983,14.46706 -0.20647,0.58631 17.45762,37.27716 21.5722,44.80852 l 1.42749,2.61289 h 22.25454 c 12.24,0 22.25454,-0.22812 22.25454,-0.50694 z m 257.60246,-18.27835 c -0.89475,-1.96153 -7.84305,-16.8509 -15.44067,-33.08751 -7.59761,-16.23661 -19.91562,-42.56299 -27.37335,-58.50308 -7.45774,-15.94008 -13.223,-29.28531 -12.8117,-29.65606 1.44143,-1.29936 52.07506,-22.10913 52.59582,-21.61621 0.78419,0.74226 10.12997,21.0272 9.82204,21.31865 -0.14565,0.13789 -8.4671,3.70214 -18.49209,7.92058 -10.025,4.21844 -18.4877,7.93361 -18.80603,8.25594 -1.01295,1.02574 11.31561,25.91739 12.69887,25.63929 0.68549,-0.13782 8.62175,-3.29087 17.63613,-7.00679 9.01437,-3.71591 16.69684,-6.44983 17.07216,-6.07536 1.58158,1.57798 9.75747,19.98928 9.11851,20.53398 -0.38439,0.32769 -6.9143,3.1589 -14.5109,6.29158 -7.5966,3.13269 -15.28265,6.39923 -17.08012,7.25898 l -3.2681,1.56319 7.15804,15.41149 c 3.93692,8.47633 7.43334,15.69688 7.76981,16.04567 0.33648,0.34879 9.33797,-2.97233 20.00331,-7.38027 10.66536,-4.40795 19.7028,-8.01445 20.08321,-8.01445 0.38041,0 1.20629,1.04378 1.83529,2.31951 2.47101,5.01169 8.0534,17.95654 8.0534,18.6748 0,0.41808 -9.52359,4.75472 -21.16355,9.63697 -11.63995,4.88226 -23.88824,10.03754 -27.21841,11.45617 l -6.05486,2.57932 z m 61.40374,-82.50994 c -12.98417,-27.8782 -23.82282,-50.81377 -24.08587,-50.96794 -0.26306,-0.15419 -4.87449,1.585 -10.24761,3.86485 -5.37314,2.27985 -10.31396,4.05512 -10.9796,3.94504 -1.00883,-0.16683 -8.68106,-14.97261 -10.37227,-20.01631 -0.41017,-1.22324 0.86272,-2.04846 6.87624,-4.45786 4.05877,-1.6262 17.06597,-6.98297 28.90488,-11.90391 11.83892,-4.92095 21.90603,-8.94718 22.37137,-8.94718 0.85665,0 10.0544,19.03421 10.02866,20.7537 -0.008,0.51282 -4.80999,2.93329 -10.67177,5.37882 l -10.65781,4.44642 1.16869,2.63406 c 0.64277,1.44874 11.22383,24.07903 23.51346,50.28956 12.28962,26.21052 22.47438,48.12893 22.6328,48.70756 0.23039,0.84157 -12.43956,6.96081 -14.41241,6.96081 -0.25365,0 -11.0846,-22.80943 -24.06876,-50.68762 z"
       id="path1975" />
  </g>
</svg>
