<?xml version="1.0" encoding="UTF-8" standalone="no"?>
<svg
   xmlns:dc="http://purl.org/dc/elements/1.1/"
   xmlns:cc="http://creativecommons.org/ns#"
   xmlns:rdf="http://www.w3.org/1999/02/22-rdf-syntax-ns#"
   xmlns:svg="http://www.w3.org/2000/svg"
   xmlns="http://www.w3.org/2000/svg"
   xmlns:sodipodi="http://sodipodi.sourceforge.net/DTD/sodipodi-0.dtd"
   xmlns:inkscape="http://www.inkscape.org/namespaces/inkscape"
   width="800px"
   height="800px"
   viewBox="0 0 64 64"
   aria-hidden="true"
   role="img"
   class="iconify iconify--emojione-monotone"
   preserveAspectRatio="xMidYMid meet"
   version="1.1"
   id="svg70"
   sodipodi:docname="train.svg"
   inkscape:version="1.0.2-2 (e86c870879, 2021-01-15)">
  <metadata
     id="metadata76">
    <rdf:RDF>
      <cc:Work
         rdf:about="">
        <dc:format>image/svg+xml</dc:format>
        <dc:type
           rdf:resource="http://purl.org/dc/dcmitype/StillImage" />
      </cc:Work>
    </rdf:RDF>
  </metadata>
  <defs
     id="defs74" />
  <sodipodi:namedview
     pagecolor="#ffffff"
     bordercolor="#666666"
     borderopacity="1"
     objecttolerance="10"
     gridtolerance="10"
     guidetolerance="10"
     inkscape:pageopacity="0"
     inkscape:pageshadow="2"
     inkscape:window-width="1302"
     inkscape:window-height="745"
     id="namedview72"
     showgrid="false"
     inkscape:zoom="0.69303444"
     inkscape:cx="322.80326"
     inkscape:cy="465.43207"
     inkscape:window-x="-8"
     inkscape:window-y="-8"
     inkscape:window-maximized="1"
     inkscape:current-layer="svg70" />
  <path
     d="M30.873 19.986V10.51c-.148-.792-19.391 2.355-19.24 3.147v9.476c.15.793 19.39-2.354 19.24-3.147"
     fill="#000000"
     id="path44"
     style="fill:#005690;opacity:0.97;fill-opacity:1" />
  <path
     d="M52.367 23.134v-9.476c.152-.792-19.09-3.939-19.24-3.147v9.475c-.15.793 19.09 3.94 19.24 3.148"
     fill="#000000"
     id="path46"
     style="fill:#005690;fill-opacity:1" />
  <ellipse
     cx="12.439"
     cy="26.402"
     rx="1.574"
     ry="1.535"
     fill="#000000"
     id="ellipse48"
     style="fill:#005690;fill-opacity:1" />
  <path
     d="M17.018 51.689l7.441 1.278l.369-2.039l-7.441-1.278z"
     fill="#000000"
     id="path50"
     style="fill:#005690;fill-opacity:1" />
  <path
     d="M39.172 50.928l.369 2.039l7.441-1.278l-.369-2.039z"
     fill="#000000"
     id="path52"
     style="fill:#005690;fill-opacity:1" />
  <ellipse
     cx="51.562"
     cy="26.401"
     rx="1.575"
     ry="1.535"
     fill="#000000"
     id="ellipse54"
     style="fill:#005690;fill-opacity:1" />
  <ellipse
     cx="32"
     cy="27.291"
     rx="3.352"
     ry="3.265"
     fill="#000000"
     id="ellipse56"
     style="fill:#005690;fill-opacity:1" />
  <path
     d="M29.713 36.271c0 1.23 1.025 2.229 2.287 2.229s2.287-.998 2.287-2.229s-1.025-2.226-2.287-2.226s-2.287.996-2.287 2.226m3.359 0c0 .576-.48 1.045-1.072 1.045a1.06 1.06 0 0 1-1.07-1.045c0-.574.48-1.043 1.07-1.043c.592.001 1.072.469 1.072 1.043"
     fill="#000000"
     id="path58"
     style="fill:#005690;fill-opacity:1" />
  <path
     d="M45.379 30.195l-.285 1.57c-.084.462.299.914.852 1.009l8.008 1.376c.553.094 1.07-.203 1.152-.664l.285-1.571c.084-.462-.297-.913-.852-1.008l-8.008-1.376c-.552-.095-1.07.203-1.152.664"
     fill="#000000"
     id="path60"
     style="fill:#005690;fill-opacity:1" />
  <path
     d="M49.994 52.668v-.167L56.23 62H62l-8.065-10.567c1.839-.619 2.839-1.518 2.839-2.958V34.292c.02-.071.045-.14.059-.214l.384-2.125a2.102 2.102 0 0 0-.351-1.596c-.027-.04-.063-.071-.092-.109v-17.87c0-1.725-1.824-2.371-3.289-2.89a33.095 33.095 0 0 0-1.113-.369v-.695c0-.304-2.428-1.125-6.088-1.887c.015-.143.043-.281.043-.428c0-2.266-1.88-4.109-4.191-4.109c-2.029 0-3.726 1.423-4.107 3.306A64.707 64.707 0 0 0 32 5c-2.038 0-4.068.122-6.025.306C25.593 3.423 23.896 2 21.867 2c-2.312 0-4.191 1.843-4.191 4.109c0 .146.028.285.043.427c-3.661.762-6.088 1.583-6.088 1.887v.694c-.396.124-.77.248-1.113.369c-1.466.519-3.29 1.165-3.29 2.89l.002 17.868c-.03.039-.066.07-.095.111a2.115 2.115 0 0 0-.35 1.596l.384 2.124c.014.077.039.149.062.222v6.069h-.003v8.107c0 1.44 1 2.339 2.839 2.959L2 62h5.771l6.235-9.497v.165c0 1.284.793 2.338 2.341 3.167L12.439 62H51.56l-3.906-6.166c1.549-.828 2.34-1.882 2.34-3.166m-7.863-14.307v.199c0 .689-1.045 1.156-1.596 1.248c-.754.126-1.662.228-2.66.308v-1.755h4.256m-4.256-2.09v-1.756a32.68 32.68 0 0 1 2.66.309c.551.092 1.596.559 1.596 1.248v.199h-4.256m18.357-4.497l-.385 2.124a1.172 1.172 0 0 1-1.365.931l-9.273-1.594a1.153 1.153 0 0 1-.957-1.331l.385-2.122a1.17 1.17 0 0 1 1.367-.931l9.273 1.592c.641.112 1.069.706.955 1.331M42.135 3c1.762 0 3.191 1.392 3.191 3.109s-1.43 3.109-3.191 3.109s-3.191-1.393-3.191-3.109C38.943 4.392 40.373 3 42.135 3M21.867 3c1.762 0 3.191 1.392 3.191 3.109s-1.43 3.109-3.191 3.109s-3.191-1.393-3.191-3.109C18.676 4.392 20.105 3 21.867 3m-2.585 6.32a4.2 4.2 0 0 0 6.03-.88A64.077 64.077 0 0 1 32 8.066h.006c2.259 0 4.514.144 6.684.373a4.202 4.202 0 0 0 6.03.881c5.848 1.095 10.054 2.581 10.054 3.058v16.966l-8.601-1.477a2.29 2.29 0 0 0-.376-.032a2.167 2.167 0 0 0-2.145 1.772l-.384 2.121a2.11 2.11 0 0 0 .354 1.601c.334.478.838.795 1.418.894l9.272 1.594c.127.021.251.032.374.032c.029 0 .057-.007.086-.007v.431h-10.52v-.832c0-1.039-1.262-1.742-1.928-1.879c-1.215-.253-2.752-.444-4.449-.575v-9.903c0-2.539-11.748-2.539-11.748 0v9.903c-1.698.131-3.235.322-4.449.575c-.666.137-1.928.84-1.928 1.879v.832H9.23v-.431c.028 0 .056.007.084.007c.123 0 .248-.011.373-.032l9.273-1.594a2.17 2.17 0 0 0 1.418-.893a2.12 2.12 0 0 0 .354-1.601l-.385-2.124a2.165 2.165 0 0 0-2.143-1.771c-.124 0-.25.011-.376.032l-8.6 1.477V12.377c0-.477 4.206-1.962 10.054-3.057M32 32.063c-2.705 0-4.898-2.137-4.898-4.772s2.193-4.772 4.898-4.772s4.898 2.137 4.898 4.772s-2.193 4.772-4.898 4.772m3.344 4.208c0 1.801-1.498 3.26-3.344 3.26s-3.342-1.459-3.342-3.26c0-1.797 1.496-3.256 3.342-3.256s3.344 1.46 3.344 3.256m-11.879 3.538c-.551-.092-1.594-.559-1.594-1.248v-.199h4.256v1.755c-1-.081-1.906-.182-2.662-.308m-1.594-3.538v-.199c0-.689 1.043-1.156 1.594-1.248a32.737 32.737 0 0 1 2.662-.309v1.756h-4.256M8.152 33.898l-.384-2.124a1.152 1.152 0 0 1 .956-1.331l9.273-1.592a1.167 1.167 0 0 1 1.365.931l.385 2.122a1.15 1.15 0 0 1-.957 1.331L9.519 34.83a1.177 1.177 0 0 1-1.367-.932m39.842 18.77c0 1.7-4.498 2.763-10.121 3.188v-2.889H26.127v2.889c-5.623-.425-10.121-1.487-10.121-3.188v-2.161c-4.078-.459-6.778-1.137-6.778-2.032V45.15h15.54v3.725h3.02v2.686h2.143v-2.686h4.141v2.686h2.145v-2.686h3.018V45.15h15.541v3.324c0 .896-2.699 1.573-6.779 2.032v2.162z"
     fill="#000000"
     id="path62"
     style="fill:#005690;fill-opacity:1" />
  <path
     d="M10.049 34.15l8.008-1.376c.553-.097.934-.549.85-1.011l-.283-1.568c-.084-.461-.6-.76-1.154-.664l-8.01 1.376c-.552.095-.934.546-.851 1.008l.284 1.571c.084.461.602.758 1.156.664"
     fill="#000000"
     id="path64"
     style="fill:#005690;fill-opacity:1" />
  <path
     d="M21.865 8.235c1.205 0 2.184-.951 2.184-2.126s-.979-2.127-2.184-2.127c-1.203 0-2.182.952-2.182 2.127s.979 2.126 2.182 2.126"
     fill="#000000"
     id="path66"
     style="fill:#005690;fill-opacity:1" />
  <ellipse
     cx="42.135"
     cy="6.109"
     rx="2.184"
     ry="2.126"
     fill="#000000"
     id="ellipse68"
     style="fill:#005690;fill-opacity:1" />
  <path
     style="font-variation-settings:normal;opacity:1;vector-effect:none;fill:#2b0000;fill-opacity:0;stroke-width:4.12265;stroke-linecap:butt;stroke-linejoin:miter;stroke-miterlimit:4;stroke-dasharray:none;stroke-dashoffset:0;stroke-opacity:1;stop-color:#000000;stop-opacity:1"
     d="m 147.10749,290.03976 c -2.36957,-1.73868 -2.51813,-5.9272 -2.16439,-61.02693 l 0.3798,-59.16012 5.41309,-2.64497 c 21.29968,-10.40755 196.26879,-39.55323 226.72855,-37.76758 3.26798,0.19158 6.75342,0.43465 7.74543,0.54015 1.41075,0.15004 1.80366,13.18768 1.80366,59.84978 0,55.02293 -0.19618,59.82767 -2.52512,61.84248 -1.38882,1.2015 -3.82377,2.52575 -5.41099,2.9428 -1.58722,0.41704 -7.75575,2.08591 -13.70783,3.7086 -11.10534,3.02759 -42.3712,9.6516 -52.66694,11.15806 -3.17444,0.46448 -8.04433,1.40326 -10.82197,2.08618 -2.77764,0.68291 -8.29685,1.63874 -12.26491,2.12404 -3.96805,0.4853 -8.18862,1.17016 -9.37904,1.52192 -2.55755,0.75572 -45.14527,7.39785 -55.55279,8.66421 -3.96806,0.48282 -8.18863,1.12963 -9.37905,1.43733 -1.19041,0.30772 -8.98223,1.27877 -17.31515,2.15789 -8.33292,0.87913 -17.09872,1.85079 -19.47956,2.15926 -15.2011,1.9695 -29.029,2.14866 -31.40279,0.4069 z"
     id="path901"
     transform="scale(0.08)" />
  <path
     style="font-variation-settings:normal;opacity:1;vector-effect:none;fill:#005690;fill-opacity:0;stroke-width:4.12265;stroke-linecap:butt;stroke-linejoin:miter;stroke-miterlimit:4;stroke-dasharray:none;stroke-dashoffset:0;stroke-opacity:1;stop-color:#000000;stop-opacity:1"
     d="m 147.10749,290.03976 c -2.36957,-1.73868 -2.51813,-5.9272 -2.16439,-61.02693 l 0.3798,-59.16012 5.41309,-2.64497 c 21.29968,-10.40755 196.26879,-39.55323 226.72855,-37.76758 3.26798,0.19158 6.75342,0.43465 7.74543,0.54015 1.41075,0.15004 1.80366,13.18768 1.80366,59.84978 0,55.02293 -0.19618,59.82767 -2.52512,61.84248 -1.38882,1.2015 -3.82377,2.52575 -5.41099,2.9428 -1.58722,0.41704 -7.75575,2.08591 -13.70783,3.7086 -11.10534,3.02759 -42.3712,9.6516 -52.66694,11.15806 -3.17444,0.46448 -8.04433,1.40326 -10.82197,2.08618 -2.77764,0.68291 -8.29685,1.63874 -12.26491,2.12404 -3.96805,0.4853 -8.18862,1.17016 -9.37904,1.52192 -2.55755,0.75572 -45.14527,7.39785 -55.55279,8.66421 -3.96806,0.48282 -8.18863,1.12963 -9.37905,1.43733 -1.19041,0.30772 -8.98223,1.27877 -17.31515,2.15789 -8.33292,0.87913 -17.09872,1.85079 -19.47956,2.15926 -15.2011,1.9695 -29.029,2.14866 -31.40279,0.4069 z"
     id="path903"
     transform="scale(0.08)" />
</svg>
